/* XPM */
static char * smiley_xpm[] = {
"50 50 520 2",
"  	c None",
". 	c #FFFFFF",
"+ 	c #FFFEFE",
"@ 	c #FFFDFC",
"# 	c #FEFCFB",
"$ 	c #FEFBF9",
"% 	c #FBEEE7",
"& 	c #F7DCCD",
"* 	c #F4CCB3",
"= 	c #F2BE9B",
"- 	c #F0B58A",
"; 	c #F0AF80",
"> 	c #F2BE9C",
", 	c #F4CCB4",
"' 	c #F8DDCE",
") 	c #FBEFE9",
"! 	c #FEFBFA",
"~ 	c #FBECE4",
"{ 	c #F4CAB0",
"] 	c #EEA870",
"^ 	c #EC9638",
"/ 	c #EC9518",
"( 	c #EE9C0B",
"_ 	c #F0A512",
": 	c #F1AC16",
"< 	c #F2AF18",
"[ 	c #F1AB16",
"} 	c #EC9517",
"| 	c #EC963B",
"1 	c #EFAA73",
"2 	c #F5CDB5",
"3 	c #FAE7DD",
"4 	c #F1B890",
"5 	c #ED9A09",
"6 	c #F2B21A",
"7 	c #F7C826",
"8 	c #FBD62D",
"9 	c #FDDC31",
"0 	c #FEE032",
"a 	c #FEE133",
"b 	c #FBD52D",
"c 	c #F7C726",
"d 	c #F2B019",
"e 	c #ED9807",
"f 	c #EC983D",
"g 	c #F1BB97",
"h 	c #FAEAE2",
"i 	c #FFFEFD",
"j 	c #FCF3EF",
"k 	c #F2C1A1",
"l 	c #EC9635",
"m 	c #EFA10F",
"n 	c #F6C424",
"o 	c #FCDA30",
"p 	c #FEE033",
"q 	c #FCD92F",
"r 	c #F6C123",
"s 	c #EE9F0D",
"t 	c #EC973B",
"u 	c #F3C7AB",
"v 	c #FDF6F2",
"w 	c #F9E5DA",
"x 	c #EEA568",
"y 	c #ED9908",
"z 	c #FDDD31",
"A 	c #FCDB30",
"B 	c #F5BE21",
"C 	c #ED9711",
"D 	c #EFA972",
"E 	c #FAEAE1",
"F 	c #F7DBCB",
"G 	c #EC9945",
"H 	c #F0A714",
"I 	c #FAD22B",
"J 	c #EFA411",
"K 	c #ED9C4F",
"L 	c #F8E1D4",
"M 	c #F7DCCC",
"N 	c #F2B11A",
"O 	c #FDDC30",
"P 	c #F1AC17",
"Q 	c #F9E1D4",
"R 	c #F9E6DB",
"S 	c #EC9A45",
"T 	c #FDDE31",
"U 	c #ED9C51",
"V 	c #FDF5F0",
"W 	c #EEA569",
"X 	c #F0A814",
"Y 	c #EFAA75",
"Z 	c #FDF7F4",
"` 	c #F3C3A5",
" .	c #FAD32C",
"..	c #ED9811",
"+.	c #F4C9AF",
"@.	c #FAE9E0",
"#.	c #F6C223",
"$.	c #EC9740",
"%.	c #FBEDE6",
"&.	c #FFFDFD",
"*.	c #F2BC99",
"=.	c #FDDB30",
"-.	c #EE9E0D",
";.	c #FCF0EB",
">.	c #EC9840",
",.	c #F6C324",
"'.	c #ECD232",
").	c #BDA82D",
"!.	c #A6942B",
"~.	c #C0AB2D",
"{.	c #EED332",
"].	c #FDE033",
"^.	c #E7CD31",
"/.	c #B9A42D",
"(.	c #A6952B",
"_.	c #C5AF2E",
":.	c #F2D732",
"<.	c #F6C022",
"[.	c #EC9947",
"}.	c #FCF2EE",
"|.	c #F5D2BD",
"1.	c #ED9912",
"2.	c #FCDA2F",
"3.	c #D6BF2F",
"4.	c #5A5226",
"5.	c #262624",
"6.	c #242424",
"7.	c #272624",
"8.	c #615727",
"9.	c #DCC330",
"0.	c #FDE133",
"a.	c #CBB52E",
"b.	c #4E4726",
"c.	c #252524",
"d.	c #282724",
"e.	c #6F6427",
"f.	c #E5CC31",
"g.	c #F6D5C2",
"h.	c #FEFDFC",
"i.	c #F0B284",
"j.	c #F2AE18",
"k.	c #EDD231",
"l.	c #5C5326",
"m.	c #655B27",
"n.	c #F1D632",
"o.	c #E4CB31",
"p.	c #4A4425",
"q.	c #796D28",
"r.	c #F6DB32",
"s.	c #FDF5F1",
"t.	c #ED9B4D",
"u.	c #BAA62D",
"v.	c #302E24",
"w.	c #5D5427",
"x.	c #2E2C24",
"y.	c #C2AC2E",
"z.	c #A5932B",
"A.	c #363325",
"B.	c #5B5327",
"C.	c #292824",
"D.	c #2C2A24",
"E.	c #D2BB2F",
"F.	c #ED9D53",
"G.	c #FDF6F3",
"H.	c #FAE9DF",
"I.	c #EC941D",
"J.	c #A5922B",
"K.	c #B7A32D",
"L.	c #F5DA32",
"M.	c #B09D2C",
"N.	c #252424",
"O.	c #AD9B2C",
"P.	c #8C7D29",
"Q.	c #3A3625",
"R.	c #F4D932",
"S.	c #A08E2B",
"T.	c #C1AC2E",
"U.	c #FAD12B",
"V.	c #EC9422",
"W.	c #EC9706",
"X.	c #9B8A2A",
"Y.	c #BCA82D",
"Z.	c #FADE33",
"`.	c #F9DD33",
" +	c #B8A42D",
".+	c #A1902B",
"++	c #ECD231",
"@+	c #DFC630",
"#+	c #97872A",
"$+	c #C6B02E",
"%+	c #FCE033",
"&+	c #F6DA32",
"*+	c #AF9C2C",
"=+	c #A7952B",
"-+	c #EC9606",
";+	c #F5CFB9",
">+	c #EE9D0C",
",+	c #FDDE32",
"'+	c #FEE034",
")+	c #FDDC36",
"!+	c #FDD838",
"~+	c #FCD739",
"{+	c #FDD938",
"]+	c #FDDD35",
"^+	c #F5D0BA",
"/+	c #F3C6AA",
"(+	c #EFA310",
"_+	c #FDDE35",
":+	c #FCD53A",
"<+	c #FBCC3F",
"[+	c #FAC742",
"}+	c #FAC543",
"|+	c #FAC842",
"1+	c #FBCE3E",
"2+	c #FEDF34",
"3+	c #FCD839",
"4+	c #FAC841",
"5+	c #EFA20F",
"6+	c #F3C7AC",
"7+	c #F3C2A3",
"8+	c #F0A612",
"9+	c #FCD33B",
"0+	c #FAC642",
"a+	c #F8BC48",
"b+	c #F7B64B",
"c+	c #F7B54C",
"d+	c #F7B74B",
"e+	c #F8BE47",
"f+	c #FAC941",
"g+	c #FCD639",
"h+	c #F8BF47",
"i+	c #F7B64C",
"j+	c #FAC643",
"k+	c #F0A511",
"l+	c #F8BA49",
"m+	c #F6AF4F",
"n+	c #F5A754",
"o+	c #F4A555",
"p+	c #F5A953",
"q+	c #F6B24E",
"r+	c #F8BD48",
"s+	c #FDDB36",
"t+	c #F6AF50",
"u+	c #F7BA49",
"v+	c #FDDE33",
"w+	c #FCD13C",
"x+	c #F9C145",
"y+	c #F6B14E",
"z+	c #F4A455",
"A+	c #F39B5B",
"B+	c #F2985C",
"C+	c #F39D5A",
"D+	c #F5A854",
"E+	c #F9C443",
"F+	c #F9C543",
"G+	c #F29B5B",
"H+	c #F4A456",
"I+	c #F9C046",
"J+	c #FBD13C",
"K+	c #FDDA33",
"L+	c #FBCD3D",
"M+	c #F8BC47",
"N+	c #F6AD50",
"O+	c #F39F58",
"P+	c #F2945F",
"Q+	c #F18F61",
"R+	c #F2965D",
"S+	c #F4A256",
"T+	c #F6B04E",
"U+	c #F9C045",
"V+	c #FCD23B",
"W+	c #FEDE33",
"X+	c #FEDF33",
"Y+	c #F7B14E",
"Z+	c #F19061",
"`+	c #F1945F",
" @	c #F6AC51",
".@	c #FBCD3E",
"+@	c #F5D0BB",
"@@	c #FCD530",
"#@	c #FBCD3C",
"$@	c #F6AC50",
"%@	c #F39F57",
"&@	c #F2955D",
"*@	c #F19160",
"=@	c #F2975C",
"-@	c #F7B04E",
";@	c #F9C044",
">@	c #FCD13A",
",@	c #FEDD33",
"'@	c #FEDD32",
")@	c #F7B04D",
"!@	c #F4A355",
"~@	c #F8BB47",
"{@	c #FBCC3D",
"]@	c #FBD430",
"^@	c #EC9605",
"/@	c #EC931D",
"(@	c #F9CC2B",
"_@	c #FBCE39",
":@	c #F8BF43",
"<@	c #F6B14C",
"[@	c #F4A553",
"}@	c #F39D58",
"|@	c #F29A59",
"1@	c #F39E57",
"2@	c #D6924B",
"3@	c #B4853C",
"4@	c #F4BF40",
"5@	c #FCD237",
"6@	c #FDDB31",
"7@	c #F8C240",
"8@	c #C89440",
"9@	c #C08445",
"0@	c #F6B04C",
"a@	c #F8BE43",
"b@	c #FBCE3A",
"c@	c #F9CB2A",
"d@	c #EB9422",
"e@	c #F6BD22",
"f@	c #FCD234",
"g@	c #FAC43D",
"h@	c #F8B845",
"i@	c #F6AE4C",
"j@	c #F5A750",
"k@	c #F5A651",
"l@	c #F5A94F",
"m@	c #C18A3F",
"n@	c #312B25",
"o@	c #9A7D2E",
"p@	c #F0CA32",
"q@	c #FDD730",
"r@	c #FDD830",
"s@	c #F7D032",
"t@	c #B99532",
"u@	c #3D3426",
"v@	c #986E36",
"w@	c #F4A84F",
"x@	c #F7B746",
"y@	c #FAC43E",
"z@	c #FCD135",
"A@	c #F5BB21",
"B@	c #ED9E55",
"C@	c #F0B386",
"D@	c #F1A816",
"E@	c #FCD130",
"F@	c #FACA36",
"G@	c #F9C03D",
"H@	c #F7B743",
"I@	c #F7B246",
"J@	c #F6B147",
"K@	c #F7B345",
"L@	c #F2B540",
"M@	c #876A2C",
"N@	c #6A5B26",
"O@	c #C7A82C",
"P@	c #F2CB2F",
"Q@	c #FBD32F",
"R@	c #FCD330",
"S@	c #FCD32F",
"T@	c #F6CE2F",
"U@	c #D7B52D",
"V@	c #867228",
"W@	c #2D2B24",
"X@	c #5B4A28",
"Y@	c #E4AB3E",
"Z@	c #F0A715",
"`@	c #F0B58B",
" #	c #F6D3BE",
".#	c #ED9611",
"+#	c #FAC82B",
"@#	c #FBCC2F",
"##	c #FAC733",
"$#	c #F9C138",
"%#	c #F9BD3B",
"&#	c #F9BC3C",
"*#	c #F9BE3A",
"=#	c #FAC336",
"-#	c #E8BA30",
";#	c #675626",
">#	c #2A2924",
",#	c #5E5126",
"'#	c #9B8128",
")#	c #C09F2B",
"!#	c #D5AF2C",
"~#	c #DEB72D",
"{#	c #E3BB2D",
"]#	c #E4BB2D",
"^#	c #E0B82D",
"/#	c #D8B22C",
"(#	c #C7A42B",
"_#	c #A68A29",
":#	c #716027",
"<#	c #322E24",
"[#	c #443A25",
"}#	c #D1A82E",
"|#	c #F9C336",
"1#	c #FAC72A",
"2#	c #EC9511",
"3#	c #F6D6C3",
"4#	c #FCF1EC",
"5#	c #EC9842",
"6#	c #F4B21F",
"7#	c #FBC72C",
"8#	c #FBC62E",
"9#	c #FAC42F",
"0#	c #FAC52F",
"a#	c #FBC62D",
"b#	c #E0B22B",
"c#	c #625025",
"d#	c #353024",
"e#	c #3B3424",
"f#	c #3C3525",
"g#	c #383224",
"h#	c #2F2B24",
"i#	c #433825",
"j#	c #C79E29",
"k#	c #FAC72C",
"l#	c #F4B01D",
"m#	c #EC9A49",
"n#	c #FCF3EE",
"o#	c #EE990B",
"p#	c #F9BD29",
"q#	c #FAC02B",
"r#	c #E3AF29",
"s#	c #7A5F26",
"t#	c #282624",
"u#	c #5A4725",
"v#	c #CF9F28",
"w#	c #F9BF2A",
"x#	c #F8BD28",
"y#	c #ED9809",
"z#	c #FAEBE3",
"A#	c #F3A81B",
"B#	c #F9B828",
"C#	c #F0B128",
"D#	c #AF8126",
"E#	c #503F24",
"F#	c #262524",
"G#	c #3C3224",
"H#	c #977025",
"I#	c #E5A927",
"J#	c #F2A619",
"K#	c #F3C6A9",
"L#	c #EC9411",
"M#	c #F5AA21",
"N#	c #F7AE26",
"O#	c #F8AE26",
"P#	c #F7AE25",
"Q#	c #E6A225",
"R#	c #B68025",
"S#	c #7D5924",
"T#	c #574024",
"U#	c #443524",
"V#	c #423424",
"W#	c #503C24",
"X#	c #705024",
"Y#	c #A77525",
"Z#	c #DC9A25",
"`#	c #F5AC25",
" $	c #F5A920",
".$	c #EC9310",
"+$	c #F4CBB2",
"@$	c #EEA76D",
"#$	c #EE950C",
"$$	c #F6A322",
"%$	c #F6A523",
"&$	c #F4A423",
"*$	c #EB9D23",
"=$	c #E39823",
"-$	c #E99C23",
";$	c #F3A223",
">$	c #F5A321",
",$	c #ED940A",
"'$	c #EFAC79",
")$	c #FDF8F5",
"!$	c #FAE8DE",
"~$	c #EF9610",
"{$	c #F5A222",
"]$	c #F6A323",
"^$	c #F5A221",
"/$	c #EE950E",
"($	c #F8DED0",
"_$	c #EC973D",
":$	c #EF960F",
"<$	c #F5A120",
"[$	c #F9E3D7",
"}$	c #F8DECF",
"|$	c #EE940B",
"1$	c #F4A01E",
"2$	c #F49F1D",
"3$	c #ED9309",
"4$	c #EEA66C",
"5$	c #EC9104",
"6$	c #F19A17",
"7$	c #F5A121",
"8$	c #F19915",
"9$	c #EC910F",
"0$	c #EFAB77",
"a$	c #FBEBE3",
"b$	c #ED9308",
"c$	c #F19B18",
"d$	c #ED9207",
"e$	c #F4C9AE",
"f$	c #F1B993",
"g$	c #EF9711",
"h$	c #F29C1A",
"i$	c #F4A01F",
"j$	c #F29C19",
"k$	c #F2BD9B",
"l$	c #FBECE5",
"m$	c #EEA871",
"n$	c #EC9117",
"o$	c #ED9206",
"p$	c #EF950E",
"q$	c #EC9206",
"r$	c #EFAB76",
"s$	c #F5CEB6",
"t$	c #FBEEE8",
"u$	c #F4CDB4",
". . . . . . . . . . . . . . . . . . . . . . . . . . . . . . . . . . . . . . . . . . . . . . . . . . ",
". . . . . . . . . . . . . . . . . . . . . + @ # # @ + . . . . . . . . . . . . . . . . . . . . . . . ",
". . . . . . . . . . . . . . . . . $ % & * = - ; ; - > , ' ) ! . . . . . . . . . . . . . . . . . . . ",
". . . . . . . . . . . . . . # ~ { ] ^ / ( _ : < < [ _ ( } | 1 2 % @ . . . . . . . . . . . . . . . . ",
". . . . . . . . . . . . @ 3 4 ^ 5 6 7 8 9 0 a a a a 0 9 b c d e f g h i . . . . . . . . . . . . . . ",
". . . . . . . . . . . j k l m n o a a a a a a a a a a a a a p q r s t u v . . . . . . . . . . . . . ",
". . . . . . . . . + w x y r z a a a a a a a a a a a a a a a a a a A B C D E . . . . . . . . . . . . ",
". . . . . . . . + F G H b a a a a a a a a a a a a a a a a a a a a a a I J K L + . . . . . . . . . . ",
". . . . . . . + M t N O a a a a a a a a a a a a a a a a a a a a a a a a A P G Q . . . . . . . . . . ",
". . . . . . . R S N T a a a a a a a a a a a a a a a a a a a a a a a a a a O P U h . . . . . . . . . ",
". . . . . . V W X 9 a a a a a a a a a a a a a a a a a a a a a a a a a a a a A J Y Z . . . . . . . . ",
". . . . . i ` y 8 a a a a a a a a a a a a a a a a a a a a a a a a a a a a a a  ...+.+ . . . . . . . ",
". . . . . @.^ #.a a a a a a a a a a a a a a a a a a a a a a a a a a a a a a a a B $.%.. . . . . . . ",
". . . . &.*.m z a a a a a a a a a a a a a a a a a a a a a a a a a a a a a a a a =.-.k + . . . . . . ",
". . . . ;.>.,.a a a a a a a a '.).!.~.{.a a a a a a a ].^./.(._.:.a a a a a a a a <.[.}.. . . . . . ",
". . . . |.1.2.a a a a a a a 3.4.5.6.7.8.9.a a a a a 0.a.b.c.6.d.e.f.a a a a a a a q C g.. . . . . . ",
". . . h.i.j.p a a a a a a k.l.6.6.6.6.6.m.n.a a a a o.p.6.6.6.6.6.q.r.a a a a a a p P - &.. . . . . ",
". . . s.t.,.a a a a a a a u.c.6.v.w.x.6.7.y.a a a a z.6.6.A.B.C.6.D.E.a a a a a a a #.F.G.. . . . . ",
". . . H.I.I a a a a a a a J.6.v.K.L.M.D.N.O.a a a ].P.6.Q._.R.S.d.c.T.a a a a a a a U.V.E . . . . . ",
". . . F W.2.a a a a a a a ^.X.Y.Z.a `. +.+++a a a a @+#+$+%+a &+*+=+:.a a a a a a a 2.-+& . . . . . ",
". . . ;+>+,+a a '+)+!+~+{+]+].a a a a a 0.a a a a a a 0.a a a a 0.].]+{+~+!+)+'+a a T ( ^+. . . . . ",
". . . /+(+0 a _+:+<+[+}+|+1+~+2+a a a a a a a a a a a a a a a a 2+3+1+4+}+[+<+:+_+a 0 5+6+. . . . . ",
". . . 7+8+p 2+9+0+a+b+c+d+e+f+g+'+a a a a a a a a a a a a a a '+~+f+h+d+c+i+a+j+9+2+p k+` . . . . . ",
". . . 7+8+p !+4+l+m+n+o+p+q+r+<+s+a a a a a a a a a a a a a a )+<+e+q+p+o+n+t+u+4+3+p k+` . . . . . ",
". . . /+(+v+w+x+y+z+A+B+C+D+c+E+g+p a a a a a a a a a a a a p g+F+c+D+C+B+G+H+y+I+J+v+5+6+. . . . . ",
". . . ;+>+K+L+M+N+O+P+Q+R+S+T+U+V+W+X+X+X+X+X+X+X+X+X+X+X+X+W+V+x+Y+S+R+Z+`+O+ @M+.@K+( +@. . . . . ",
". . . F -+@@#@M+$@%@&@*@=@S+-@;@>@,@'@'@'@'@'@'@'@'@'@'@'@'@'@>@;@)@!@=@*@&@%@$@~@{@]@^@& . . . . . ",
". . . H./@(@_@:@<@[@}@|@1@2@3@4@5@6@6@6@6@6@6@6@6@6@6@6@6@6@6@5@7@8@9@%@|@}@[@0@a@b@c@d@h . . . . . ",
". . . v K e@f@g@h@i@j@k@l@m@n@o@p@q@r@r@r@r@r@r@r@r@r@r@r@r@r@s@t@u@v@w@k@j@i@x@y@z@A@B@G.. . . . . ",
". . . @ C@D@E@F@G@H@I@J@K@L@M@5.N@O@P@Q@R@R@R@R@R@R@R@R@S@T@U@V@W@X@Y@K@J@I@H@G@F@E@Z@`@&.. . . . . ",
". . . .  #.#+#@###$#%#&#*#=#-#;#6.>#,#'#)#!#~#{#]#^#/#(#_#:#<#6.[#}#|#*#&#%#$###@#1#2#3#. . . . . . ",
". . . . 4#5#6#7#7#8#9#9#0#a#7#b#c#6.6.6.c.D.d#e#f#g#h#5.6.6.6.i#j#k#a#0#9#9#8#7#7#l#m#n#. . . . . . ",
". . . . i > o#p#q#q#q#q#q#q#q#q#r#s#t#6.6.6.6.6.6.6.6.6.6.N.u#v#w#q#q#q#q#q#q#q#x#y#7++ . . . . . . ",
". . . . . z#| A#B#B#B#B#B#B#B#B#B#C#D#E#F#6.6.6.6.6.6.N.G#H#I#B#B#B#B#B#B#B#B#B#J#G % . . . . . . . ",
". . . . . i K#L#M#N#O#O#O#O#O#O#O#O#P#Q#R#S#T#U#V#W#X#Y#Z#`#O#O#O#O#O#O#O#O#N# $.$+$+ . . . . . . . ",
". . . . . . s.@$#$$$%$%$%$%$%$%$%$%$%$%$%$&$*$=$=$-$;$%$%$%$%$%$%$%$%$%$%$%$>$,$'$)$. . . . . . . . ",
". . . . . . . !$m#~${$]$]$]$]$]$]$]$]$]$]$]$]$]$]$]$]$]$]$]$]$]$]$]$]$]$]$^$/$B@~ . . . . . . . . . ",
". . . . . . . + ($_$:$^$]$]$]$]$]$]$]$]$]$]$]$]$]$]$]$]$]$]$]$]$]$]$]$]$<$/$m#[$. . . . . . . . . . ",
". . . . . . . . + }$m#|$1$]$]$]$]$]$]$]$]$]$]$]$]$]$]$]$]$]$]$]$]$]$]$2$3$F.[$+ . . . . . . . . . . ",
". . . . . . . . . + 3 4$5$6$^$]$]$]$]$]$]$]$]$]$]$]$]$]$]$]$]$]$]$7$8$9$0$a$. . . . . . . . . . . . ",
". . . . . . . . . . . V ` ^ b$c$<$]$]$]$]$]$]$]$]$]$]$]$]$]$]$<$6$d$$.e$G.. . . . . . . . . . . . . ",
". . . . . . . . . . . . &.!$f$| 5$g$h$i$^$$$]$]$]$]$$$^$i$j$~$5$$.k$~ i . . . . . . . . . . . . . . ",
". . . . . . . . . . . . . . h.l$+$m$^ n$o$|$p$~$~$/$|$q$n$| r$s$t$&.. . . . . . . . . . . . . . . . ",
". . . . . . . . . . . . . . . . . $ t$& * = - ; ; - > u$}$) ! . . . . . . . . . . . . . . . . . . . ",
". . . . . . . . . . . . . . . . . . . . . + @ # # @ + . . . . . . . . . . . . . . . . . . . . . . . ",
". . . . . . . . . . . . . . . . . . . . . . . . . . . . . . . . . . . . . . . . . . . . . . . . . . ",
". . . . . . . . . . . . . . . . . . . . . . . . . . . . . . . . . . . . . . . . . . . . . . . . . . ",
". . . . . . . . . . . . . . . . . . . . . . . . . . . . . . . . . . . . . . . . . . . . . . . . . . ",
". . . . . . . . . . . . . . . . . . . . . . . . . . . . . . . . . . . . . . . . . . . . . . . . . . ",
". . . . . . . . . . . . . . . . . . . . . . . . . . . . . . . . . . . . . . . . . . . . . . . . . . "};
